<svg xmlns="http://www.w3.org/2000/svg" xmlns:xlink="http://www.w3.org/1999/xlink" xmlns:lucid="lucid" width="1080" height="720"><g transform="translate(-420 -200)" lucid:page-tab-id="X2s93HxIIwTu"><path d="M0 0h1870.87v1322.83H0z" fill="#fff"/><path d="M440 220h1040v60H440z" fill="none"/><use xlink:href="#a" transform="matrix(1,0,0,1,440,220) translate(427.5 34.44444444444444)"/><use xlink:href="#b" transform="matrix(1,0,0,1,440,220) translate(547.1913580246913 34.44444444444444)"/><path d="M440 286a6 6 0 0 1 6-6h1028a6 6 0 0 1 6 6v608a6 6 0 0 1-6 6H446a6 6 0 0 1-6-6z" stroke="#3a414a" fill="#fff"/><path d="M540 506a6 6 0 0 1 6-6h148a6 6 0 0 1 6 6v108a6 6 0 0 1-6 6H546a6 6 0 0 1-6-6z" stroke="#3a414a" fill="#fff"/><use xlink:href="#c" transform="matrix(1,0,0,1,552,512) translate(11.333333333333329 53.77777777777778)"/><path d="M900 322a22 22 0 0 1 22-22h296a22 22 0 0 1 22 22v456a22 22 0 0 1-22 22H922a22 22 0 0 1-22-22z" fill="#fff"/><path d="M900.3 318.4l.74-3.03m.76-1.92l.6-1.44.8-1.3m1.1-1.76l2.03-2.37m1.56-1.36l1.17-1 1.32-.8m1.77-1.07l2.87-1.2m2-.5l1.52-.36h1.5m2 0h3m1.98 0h3m2 0h3m1.98-.02h3m2 0h3m2 0H950m2 0h3m2 0l2.98-.02m2 0h3m2 0h2.98m2 0h3m2 0h2.98m2-.02h3m2 0h3m1.98 0h3m2 0h3m1.98 0h3m2 0h3m1.98 0l3-.02m2 0h3m2 0h2.98m2 0h3m2 0h2.98m2-.02h3m2 0h2.98m2 0h3m2 0h2.98m2 0l3-.02m2 0h3m1.98 0h3m2 0h3m1.98 0h3m2-.02h3m1.98 0h3m2 0h3m2 0h2.98m2 0l3-.02m2 0h2.98m2 0h3m2 0h2.98m2 0l3-.02m2 0h2.98m2 0h3m2 0h3m1.98 0h3m2-.02h3m1.98 0h3m2 0h3m2 0h2.98m2 0l3-.02m2 0h2.98m2 0h3m2 0h2.98m2 0h3m2-.02h2.98m2 0h3m2 0h3m1.98 0h3m2 0l3-.02m1.98 0h1.5l1.55.12m2.06.2l3.03.72m1.92.76l1.44.6 1.3.8m1.76 1.1l2.37 2.03m1.36 1.56l1 1.17.8 1.32m1.07 1.77l1.2 2.87m.5 2l.36 1.52v1.5m0 2v3m0 2v2.98m0 2v3m0 2v3m0 2v3m.02 1.98v3m0 2v3m0 2v3m0 2V365m0 2v3m0 2v3m0 2l.02 2.98m0 2v3m0 2v3m0 2v3m0 1.98v3m0 2v3m0 2v3m0 1.98l.02 3m0 2v3m0 2v3m0 2v2.98m0 2v3m0 2v3m0 2v2.98m0 2v3m0 2v3m0 2v3m0 1.98l.02 3m0 2v3m0 2v3m0 2v2.98m0 2v3m0 2v3m0 2v2.98m0 2l.02 3m0 2v3m0 2v3m0 1.98v3m0 2v3m0 2v3m0 2v2.98m0 2l.02 3m0 2v3m0 2v2.98m0 2v3m0 2v3m0 2v3m0 1.98v3m.02 2v3m0 2v3m0 1.98v3m0 2v3m0 2v3m0 2v2.98m0 2v3m.02 2v3m0 2v2.98m0 2v3m0 2v3m0 2v3m0 1.98v3m0 2l.02 3m0 2v3m0 2v2.98m0 2v3m0 2v3m0 2v2.98m0 2v3m0 2l.02 3m0 2v3m0 1.98v3m0 2v3m0 2v3m0 2v2.98m0 2v3m0 2l.02 3m0 2v2.98m0 2v3m0 2v3m0 2v2.98m0 2v3m0 2v3m.02 2v3m0 1.98v3m0 2v3m0 2v3m0 2v2.98m0 2v3m0 2v3m.02 2v2.98m0 2v1.5l-.12 1.55m-.2 2.06l-.72 3.03m-.76 1.92l-.6 1.44-.8 1.3m-1.1 1.76l-2.03 2.37m-1.56 1.36l-1.17 1-1.32.8m-1.77 1.07l-2.87 1.2m-2 .5l-1.52.36h-1.5m-2 0h-3m-1.98 0h-3m-2 0h-3m-1.98.02h-3m-2 0h-3m-2 0H1190m-2 0h-3m-2 0l-2.98.02m-2 0h-3m-2 0h-2.98m-2 0h-3m-2 0h-2.98m-2 .02h-3m-2 0h-3m-1.98 0h-3m-2 0h-3m-1.98 0h-3m-2 0h-3m-1.98 0l-3 .02m-2 0h-3m-2 0h-2.98m-2 0h-3m-2 0h-2.98m-2 .02h-3m-2 0h-2.98m-2 0h-3m-2 0h-2.98m-2 0l-3 .02m-2 0h-3m-1.98 0h-3m-2 0h-3m-1.98 0h-3m-2 .02h-3m-1.98 0h-3m-2 0h-3m-2 0h-2.98m-2 0l-3 .02m-2 0h-2.98m-2 0h-3m-2 0h-2.98m-2 0l-3 .02m-2 0h-2.98m-2 0h-3m-2 0h-3m-1.98 0h-3m-2 .02h-3m-1.98 0h-3m-2 0h-3m-2 0h-2.98m-2 0l-3 .02m-2 0h-2.98m-2 0h-3m-2 0h-2.98m-2 0h-3m-2 .02h-2.98m-2 0h-3m-2 0h-3m-1.98 0h-3m-2 0l-3 .02m-1.98 0H922l-1.55-.12m-2.06-.2l-3.03-.72m-1.92-.76l-1.44-.6-1.3-.8m-1.76-1.1l-2.37-2.03m-1.36-1.56l-1-1.17-.8-1.32m-1.07-1.77l-1.2-2.87m-.5-2l-.36-1.52v-1.5m0-2v-3m0-2v-2.98m0-2v-3m0-2v-3m0-2v-3m-.02-1.98v-3m0-2v-3m0-2v-3m0-2V735m0-2v-3m0-2v-3m0-2l-.02-2.98m0-2v-3m0-2v-3m0-2v-3m0-1.98v-3m0-2v-3m0-2v-3m0-1.98l-.02-3m0-2v-3m0-2v-3m0-2v-2.98m0-2v-3m0-2v-3m0-2v-2.98m0-2v-3m0-2v-3m0-2v-3m0-1.98l-.02-3m0-2v-3m0-2v-3m0-2v-2.98m0-2v-3m0-2v-3m0-2v-2.98m0-2l-.02-3m0-2v-3m0-2v-3m0-1.98v-3m0-2v-3m0-2v-3m0-2v-2.98m0-2l-.02-3m0-2v-3m0-2v-2.98m0-2v-3m0-2v-3m0-2v-3m0-1.98v-3m-.02-2v-3m0-2v-3m0-1.98v-3m0-2v-3m0-2v-3m0-2v-2.98m0-2v-3m-.02-2v-3m0-2v-2.98m0-2v-3m0-2v-3m0-2v-3m0-1.98v-3m0-2l-.02-3m0-2v-3m0-2v-2.98m0-2v-3m0-2v-3m0-2v-2.98m0-2v-3m0-2l-.02-3m0-2v-3m0-1.98v-3m0-2v-3m0-2v-3m0-2v-2.98m0-2v-3m0-2l-.02-3m0-2v-2.98m0-2v-3m0-2v-3m0-2v-2.98m0-2v-3m0-2v-3m-.02-2v-3m0-1.98v-3m0-2v-3m0-2v-3m0-2v-2.98m0-2v-3m0-2v-3m-.02-2v-2.98m0-2V322l.12-1.55M700.94 532H834a6 6 0 0 0 6-6V406a6 6 0 0 1 6-6h117.15" stroke="#3a414a" fill="none"/><path d="M700.96 532.5h-.52v-1h.52z" stroke="#3a414a" stroke-width=".05" fill="#3a414a"/><path d="M977.92 400l-14.27 4.64v-9.28z" stroke="#3a414a" fill="#3a414a"/><path d="M980 366a6 6 0 0 1 6-6h188a6 6 0 0 1 6 6v68a6 6 0 0 1-6 6H986a6 6 0 0 1-6-6z" stroke="#3a414a" fill="#fff"/><use xlink:href="#d" transform="matrix(1,0,0,1,992,372) translate(36.24074074074075 31.77777777777778)"/><use xlink:href="#e" transform="matrix(1,0,0,1,992,372) translate(84.26543209876544 31.77777777777778)"/><path d="M980 526a6 6 0 0 1 6-6h188a6 6 0 0 1 6 6v68a6 6 0 0 1-6 6H986a6 6 0 0 1-6-6z" stroke="#3a414a" fill="#fff"/><use xlink:href="#d" transform="matrix(1,0,0,1,992,532) translate(22.722222222222214 31.77777777777778)"/><use xlink:href="#f" transform="matrix(1,0,0,1,992,532) translate(70.74691358024691 31.77777777777778)"/><path d="M700.96 560h262.2" stroke="#3a414a" fill="none"/><path d="M700.98 560.5h-.52v-1h.52z" stroke="#3a414a" stroke-width=".05" fill="#3a414a"/><path d="M977.92 560l-14.27 4.64v-9.28z" stroke="#3a414a" fill="#3a414a"/><path d="M980 686a6 6 0 0 1 6-6h188a6 6 0 0 1 6 6v68a6 6 0 0 1-6 6H986a6 6 0 0 1-6-6z" stroke="#3a414a" fill="#fff"/><use xlink:href="#d" transform="matrix(1,0,0,1,992,692) translate(43.03086419753086 31.77777777777778)"/><use xlink:href="#g" transform="matrix(1,0,0,1,992,692) translate(91.05555555555554 31.77777777777778)"/><path d="M700.98 589.33H834a6 6 0 0 1 6 6V714a6 6 0 0 0 6 6h117.15" stroke="#3a414a" fill="none"/><path d="M701 589.83h-.52v-1h.52z" stroke="#3a414a" stroke-width=".05" fill="#3a414a"/><path d="M977.92 720l-14.27 4.64v-9.28z" stroke="#3a414a" fill="#3a414a"/><path d="M1260 526a6 6 0 0 1 6-6h108a6 6 0 0 1 6 6v68a6 6 0 0 1-6 6h-108a6 6 0 0 1-6-6z" stroke="#000" stroke-opacity="0" fill="#fff" fill-opacity="0"/><g><use xlink:href="#h" transform="matrix(1,0,0,1,1265,525) translate(34.074074074074076 26.111111111111114)"/><use xlink:href="#i" transform="matrix(1,0,0,1,1265,525) translate(-5.462962962962969 52.77777777777778)"/></g><defs><path fill="#3a414a" d="M194 0L95-120 63-95V0H30v-248h33v124l119-124h40L117-140 236 0h-42" id="j"/><path fill="#3a414a" d="M84 4C-5 8 30-112 23-190h32v120c0 31 7 50 39 49 72-2 45-101 50-169h31l1 190h-30c-1-10 1-25-2-33-11 22-28 36-60 37" id="k"/><path fill="#3a414a" d="M115-194c53 0 69 39 70 98 0 66-23 100-70 100C84 3 66-7 56-30L54 0H23l1-261h32v101c10-23 28-34 59-34zm-8 174c40 0 45-34 45-75 0-40-5-75-45-74-42 0-51 32-51 76 0 43 10 73 51 73" id="l"/><path fill="#3a414a" d="M100-194c63 0 86 42 84 106H49c0 40 14 67 53 68 26 1 43-12 49-29l28 8c-11 28-37 45-77 45C44 4 14-33 15-96c1-61 26-98 85-98zm52 81c6-60-76-77-97-28-3 7-6 17-6 28h103" id="m"/><path fill="#3a414a" d="M114-163C36-179 61-72 57 0H25l-1-190h30c1 12-1 29 2 39 6-27 23-49 58-41v29" id="n"/><path fill="#3a414a" d="M117-194c89-4 53 116 60 194h-32v-121c0-31-8-49-39-48C34-167 62-67 57 0H25l-1-190h30c1 10-1 24 2 32 11-22 29-35 61-36" id="o"/><path fill="#3a414a" d="M59-47c-2 24 18 29 38 22v24C64 9 27 4 27-40v-127H5v-23h24l9-43h21v43h35v23H59v120" id="p"/><path fill="#3a414a" d="M135-143c-3-34-86-38-87 0 15 53 115 12 119 90S17 21 10-45l28-5c4 36 97 45 98 0-10-56-113-15-118-90-4-57 82-63 122-42 12 7 21 19 24 35" id="q"/><g id="a"><use transform="matrix(0.06172839506172839,0,0,0.06172839506172839,0,0)" xlink:href="#j"/><use transform="matrix(0.06172839506172839,0,0,0.06172839506172839,14.814814814814813,0)" xlink:href="#k"/><use transform="matrix(0.06172839506172839,0,0,0.06172839506172839,27.160493827160494,0)" xlink:href="#l"/><use transform="matrix(0.06172839506172839,0,0,0.06172839506172839,39.50617283950617,0)" xlink:href="#m"/><use transform="matrix(0.06172839506172839,0,0,0.06172839506172839,51.85185185185185,0)" xlink:href="#n"/><use transform="matrix(0.06172839506172839,0,0,0.06172839506172839,59.197530864197525,0)" xlink:href="#o"/><use transform="matrix(0.06172839506172839,0,0,0.06172839506172839,71.5432098765432,0)" xlink:href="#m"/><use transform="matrix(0.06172839506172839,0,0,0.06172839506172839,83.88888888888889,0)" xlink:href="#p"/><use transform="matrix(0.06172839506172839,0,0,0.06172839506172839,90.06172839506172,0)" xlink:href="#m"/><use transform="matrix(0.06172839506172839,0,0,0.06172839506172839,102.4074074074074,0)" xlink:href="#q"/></g><path fill="#3a414a" d="M96-169c-40 0-48 33-48 73s9 75 48 75c24 0 41-14 43-38l32 2c-6 37-31 61-74 61-59 0-76-41-82-99-10-93 101-131 147-64 4 7 5 14 7 22l-32 3c-4-21-16-35-41-35" id="r"/><path fill="#3a414a" d="M24 0v-261h32V0H24" id="s"/><g id="b"><use transform="matrix(0.06172839506172839,0,0,0.06172839506172839,0,0)" xlink:href="#r"/><use transform="matrix(0.06172839506172839,0,0,0.06172839506172839,11.11111111111111,0)" xlink:href="#s"/><use transform="matrix(0.06172839506172839,0,0,0.06172839506172839,15.987654320987653,0)" xlink:href="#k"/><use transform="matrix(0.06172839506172839,0,0,0.06172839506172839,28.333333333333332,0)" xlink:href="#q"/><use transform="matrix(0.06172839506172839,0,0,0.06172839506172839,39.44444444444444,0)" xlink:href="#p"/><use transform="matrix(0.06172839506172839,0,0,0.06172839506172839,45.617283950617285,0)" xlink:href="#m"/><use transform="matrix(0.06172839506172839,0,0,0.06172839506172839,57.96296296296296,0)" xlink:href="#n"/></g><path fill="#3a414a" d="M106-169C34-169 62-67 57 0H25v-261h32l-1 103c12-21 28-36 61-36 89 0 53 116 60 194h-32v-121c2-32-8-49-39-48" id="t"/><path fill="#3a414a" d="M101-234c-31-9-42 10-38 44h38v23H63V0H32v-167H5v-23h27c-7-52 17-82 69-68v24" id="u"/><path fill="#3a414a" d="M16-82v-28h88v28H16" id="v"/><path fill="#3a414a" d="M100-194c62-1 85 37 85 99 1 63-27 99-86 99S16-35 15-95c0-66 28-99 85-99zM99-20c44 1 53-31 53-75 0-43-8-75-51-75s-53 32-53 75 10 74 51 75" id="w"/><path fill="#3a414a" d="M115-194c55 1 70 41 70 98S169 2 115 4C84 4 66-9 55-30l1 105H24l-1-265h31l2 30c10-21 28-34 59-34zm-8 174c40 0 45-34 45-75s-6-73-45-74c-42 0-51 32-51 76 0 43 10 73 51 73" id="x"/><path fill="#3a414a" d="M141-36C126-15 110 5 73 4 37 3 15-17 15-53c-1-64 63-63 125-63 3-35-9-54-41-54-24 1-41 7-42 31l-33-3c5-37 33-52 76-52 45 0 72 20 72 64v82c-1 20 7 32 28 27v20c-31 9-61-2-59-35zM48-53c0 20 12 33 32 33 41-3 63-29 60-74-43 2-92-5-92 41" id="y"/><g id="c"><use transform="matrix(0.06172839506172839,0,0,0.06172839506172839,0,0)" xlink:href="#t"/><use transform="matrix(0.06172839506172839,0,0,0.06172839506172839,12.345679012345679,0)" xlink:href="#s"/><use transform="matrix(0.06172839506172839,0,0,0.06172839506172839,17.22222222222222,0)" xlink:href="#u"/><use transform="matrix(0.06172839506172839,0,0,0.06172839506172839,23.39506172839506,0)" xlink:href="#v"/><use transform="matrix(0.06172839506172839,0,0,0.06172839506172839,30.74074074074074,0)" xlink:href="#w"/><use transform="matrix(0.06172839506172839,0,0,0.06172839506172839,43.08641975308642,0)" xlink:href="#x"/><use transform="matrix(0.06172839506172839,0,0,0.06172839506172839,55.432098765432094,0)" xlink:href="#m"/><use transform="matrix(0.06172839506172839,0,0,0.06172839506172839,67.77777777777777,0)" xlink:href="#n"/><use transform="matrix(0.06172839506172839,0,0,0.06172839506172839,75.12345679012346,0)" xlink:href="#y"/><use transform="matrix(0.06172839506172839,0,0,0.06172839506172839,87.46913580246914,0)" xlink:href="#p"/><use transform="matrix(0.06172839506172839,0,0,0.06172839506172839,93.64197530864197,0)" xlink:href="#w"/><use transform="matrix(0.06172839506172839,0,0,0.06172839506172839,105.98765432098766,0)" xlink:href="#n"/></g><path fill="#3a414a" d="M197 0v-115H63V0H30v-248h33v105h134v-105h34V0h-34" id="z"/><path fill="#3a414a" d="M30 0v-248h33v221h125V0H30" id="A"/><path fill="#3a414a" d="M63-220v92h138v28H63V0H30v-248h175v28H63" id="B"/><g id="d"><use transform="matrix(0.06172839506172839,0,0,0.06172839506172839,0,0)" xlink:href="#z"/><use transform="matrix(0.06172839506172839,0,0,0.06172839506172839,15.987654320987653,0)" xlink:href="#A"/><use transform="matrix(0.06172839506172839,0,0,0.06172839506172839,28.333333333333332,0)" xlink:href="#B"/></g><g id="e"><use transform="matrix(0.06172839506172839,0,0,0.06172839506172839,0,0)" xlink:href="#x"/><use transform="matrix(0.06172839506172839,0,0,0.06172839506172839,12.345679012345679,0)" xlink:href="#m"/><use transform="matrix(0.06172839506172839,0,0,0.06172839506172839,24.691358024691358,0)" xlink:href="#m"/><use transform="matrix(0.06172839506172839,0,0,0.06172839506172839,37.03703703703704,0)" xlink:href="#n"/><use transform="matrix(0.06172839506172839,0,0,0.06172839506172839,44.382716049382715,0)" xlink:href="#q"/></g><path fill="#3a414a" d="M85-194c31 0 48 13 60 33l-1-100h32l1 261h-30c-2-10 0-23-3-31C134-8 116 4 85 4 32 4 16-35 15-94c0-66 23-100 70-100zm9 24c-40 0-46 34-46 75 0 40 6 74 45 74 42 0 51-32 51-76 0-42-9-74-50-73" id="C"/><g id="f"><use transform="matrix(0.06172839506172839,0,0,0.06172839506172839,0,0)" xlink:href="#w"/><use transform="matrix(0.06172839506172839,0,0,0.06172839506172839,12.345679012345679,0)" xlink:href="#n"/><use transform="matrix(0.06172839506172839,0,0,0.06172839506172839,19.691358024691358,0)" xlink:href="#C"/><use transform="matrix(0.06172839506172839,0,0,0.06172839506172839,32.03703703703704,0)" xlink:href="#m"/><use transform="matrix(0.06172839506172839,0,0,0.06172839506172839,44.382716049382715,0)" xlink:href="#n"/><use transform="matrix(0.06172839506172839,0,0,0.06172839506172839,51.72839506172839,0)" xlink:href="#m"/><use transform="matrix(0.06172839506172839,0,0,0.06172839506172839,64.07407407407408,0)" xlink:href="#n"/><use transform="matrix(0.06172839506172839,0,0,0.06172839506172839,71.41975308641976,0)" xlink:href="#q"/></g><path fill="#3a414a" d="M212-179c-10-28-35-45-73-45-59 0-87 40-87 99 0 60 29 101 89 101 43 0 62-24 78-52l27 14C228-24 195 4 139 4 59 4 22-46 18-125c-6-104 99-153 187-111 19 9 31 26 39 46" id="D"/><path fill="#3a414a" d="M205 0l-28-72H64L36 0H1l101-248h38L239 0h-34zm-38-99l-47-123c-12 45-31 82-46 123h93" id="E"/><g id="g"><use transform="matrix(0.06172839506172839,0,0,0.06172839506172839,0,0)" xlink:href="#D"/><use transform="matrix(0.06172839506172839,0,0,0.06172839506172839,15.987654320987653,0)" xlink:href="#E"/><use transform="matrix(0.06172839506172839,0,0,0.06172839506172839,30.80246913580247,0)" xlink:href="#q"/></g><g id="h"><use transform="matrix(0.06172839506172839,0,0,0.06172839506172839,0,0)" xlink:href="#z"/><use transform="matrix(0.06172839506172839,0,0,0.06172839506172839,15.987654320987653,0)" xlink:href="#A"/><use transform="matrix(0.06172839506172839,0,0,0.06172839506172839,28.333333333333332,0)" xlink:href="#B"/></g><path fill="#3a414a" d="M210-169c-67 3-38 105-44 169h-31v-121c0-29-5-50-35-48C34-165 62-65 56 0H25l-1-190h30c1 10-1 24 2 32 10-44 99-50 107 0 11-21 27-35 58-36 85-2 47 119 55 194h-31v-121c0-29-5-49-35-48" id="F"/><g id="i"><use transform="matrix(0.06172839506172839,0,0,0.06172839506172839,0,0)" xlink:href="#r"/><use transform="matrix(0.06172839506172839,0,0,0.06172839506172839,11.11111111111111,0)" xlink:href="#w"/><use transform="matrix(0.06172839506172839,0,0,0.06172839506172839,23.45679012345679,0)" xlink:href="#F"/><use transform="matrix(0.06172839506172839,0,0,0.06172839506172839,41.91358024691358,0)" xlink:href="#x"/><use transform="matrix(0.06172839506172839,0,0,0.06172839506172839,54.25925925925926,0)" xlink:href="#w"/><use transform="matrix(0.06172839506172839,0,0,0.06172839506172839,66.60493827160494,0)" xlink:href="#o"/><use transform="matrix(0.06172839506172839,0,0,0.06172839506172839,78.95061728395062,0)" xlink:href="#m"/><use transform="matrix(0.06172839506172839,0,0,0.06172839506172839,91.2962962962963,0)" xlink:href="#o"/><use transform="matrix(0.06172839506172839,0,0,0.06172839506172839,103.64197530864199,0)" xlink:href="#p"/><use transform="matrix(0.06172839506172839,0,0,0.06172839506172839,109.81481481481482,0)" xlink:href="#q"/></g></defs></g></svg>